<svg width="26" height="12" viewBox="0 0 26 12" fill="none" xmlns="http://www.w3.org/2000/svg">
<path d="M0 6C0 2.68629 2.68629 0 6 0H20C23.3137 0 26 2.68629 26 6V6C26 9.31371 23.3137 12 20 12H6C2.68629 12 0 9.31371 0 6V6Z" fill="url(#paint0_linear)"/>
<circle cx="20" cy="6" r="4.25" fill="#C4C4C4" stroke="#C4C4C4" stroke-width="0.5"/>
<path fill-rule="evenodd" clip-rule="evenodd" d="M16.2251 10C15.1629 8.99723 14.5 7.57603 14.5 6C14.5 4.42397 15.1629 3.00277 16.2251 2H6C3.79086 2 2 3.79086 2 6C2 8.20914 3.79086 10 6 10H16.2251Z" fill="url(#paint1_linear)"/>
<circle cx="20" cy="6" r="3" fill="url(#paint2_linear)"/>
<defs>
<linearGradient id="paint0_linear" x1="13" y1="0" x2="13" y2="12" gradientUnits="userSpaceOnUse">
<stop stop-color="#343434"/>
<stop offset="1" stop-color="#343434" stop-opacity="0.8"/>
</linearGradient>
<linearGradient id="paint1_linear" x1="9.11253" y1="2" x2="9.11253" y2="10" gradientUnits="userSpaceOnUse">
<stop stop-color="#B33413"/>
<stop offset="0.359375" stop-color="#E25530"/>
<stop offset="1" stop-color="#F25B33"/>
</linearGradient>
<linearGradient id="paint2_linear" x1="20" y1="3" x2="20" y2="9" gradientUnits="userSpaceOnUse">
<stop stop-color="#9F9F9F"/>
<stop offset="1" stop-color="#AEAEAE" stop-opacity="0"/>
</linearGradient>
</defs>
</svg>
